<svg width="342" height="417" viewBox="0 0 342 417" fill="none" xmlns="http://www.w3.org/2000/svg">
<path d="M133.833 235.376C133.1 234.04 132.678 232.564 132.595 231.053C132.512 229.541 132.772 228.031 133.354 226.627C133.937 225.224 134.829 223.961 135.968 222.929C137.107 221.897 138.464 221.121 139.945 220.654L140.725 183.868L156.913 194.721L153.69 227.99C154.332 230.461 154.018 233.075 152.81 235.336C151.602 237.597 149.583 239.349 147.135 240.26C144.687 241.17 141.981 241.176 139.529 240.276C137.078 239.375 135.051 237.632 133.832 235.376H133.833Z" fill="#A0616A"/>
<path d="M151.732 93.7294L135.887 209.577L154.961 210.276L170.903 88.6652L167.077 86.4702C165.621 85.6351 163.976 85.1636 162.287 85.0976C160.598 85.0317 158.919 85.3735 157.399 86.0924C155.88 86.8113 154.567 87.885 153.578 89.2177C152.589 90.5503 151.954 92.1003 151.732 93.7294V93.7294Z" fill="#FF4133"/>
<path d="M202.303 404.183L215.283 404.182L221.459 355.493L202.3 355.494L202.303 404.183Z" fill="#A0616A"/>
<path d="M240.319 415.902L199.522 415.904L199.521 400.576L224.556 400.575C228.736 400.575 232.745 402.19 235.702 405.064C238.658 407.939 240.319 411.837 240.319 415.902V415.902Z" fill="#2F2E41"/>
<path d="M94.2998 389.097L106.079 394.4L132.719 352.74L115.333 344.914L94.2998 389.097Z" fill="#A0616A"/>
<path d="M123.734 415.264L86.7114 398.598L93.3333 384.688L116.052 394.915C119.845 396.623 122.786 399.726 124.227 403.542C125.667 407.359 125.49 411.575 123.734 415.264V415.264V415.264Z" fill="#2F2E41"/>
<path d="M215.911 393.895C215.721 393.895 215.531 393.884 215.342 393.862L205.072 392.688C203.992 392.56 202.989 392.078 202.228 391.321C201.467 390.565 200.994 389.579 200.886 388.526L188.558 262.766C188.525 262.437 188.386 262.127 188.159 261.882C187.933 261.636 187.631 261.467 187.299 261.4C186.967 261.333 186.621 261.371 186.313 261.509C186.005 261.647 185.75 261.878 185.586 262.166L116.994 383.01C116.479 383.925 115.659 384.643 114.67 385.047C113.681 385.451 112.581 385.517 111.548 385.235L100.01 382.119C99.3877 381.951 98.8065 381.662 98.3024 381.269C97.7983 380.875 97.3817 380.386 97.0781 379.832C96.7746 379.277 96.5903 378.668 96.5365 378.041C96.4828 377.415 96.5607 376.785 96.7655 376.189C106.813 346.954 157.154 200.431 161.458 186.945C166.601 170.831 204.991 164.481 208.299 163.964L210.199 162.115L210.565 162.594C227.51 184.776 235.71 214.153 233.653 245.316L233.652 245.328L220.646 389.666C220.541 390.818 219.998 391.891 219.122 392.673C218.246 393.456 217.101 393.892 215.911 393.895V393.895Z" fill="#2F2E41"/>
<path d="M161.806 67.3473C176.168 67.3473 187.811 56.0251 187.811 42.0585C187.811 28.0919 176.168 16.7698 161.806 16.7698C147.443 16.7698 135.8 28.0919 135.8 42.0585C135.8 56.0251 147.443 67.3473 161.806 67.3473Z" fill="#A0616A"/>
<path d="M163.132 183.071L147.702 104.858C146.41 98.2508 147.75 91.4136 151.449 85.731C155.148 80.0485 160.929 75.9454 167.623 74.253C171.759 73.207 176.111 73.2775 180.209 74.4571C184.308 75.6367 187.998 77.8807 190.882 80.9476C198.759 89.3088 208.764 101.476 211.699 111.964C214.184 120.866 221.177 154.226 221.247 154.562L221.303 154.827L221.109 155.022C221.072 155.059 217.326 158.824 211.494 163.524C208.072 166.282 204.575 168.841 201.098 171.132C191.338 177.541 164.781 182.75 163.655 182.969L163.132 183.071Z" fill="#FF4133"/>
<path opacity="0.2" d="M200.802 170.706C204.677 168.153 208.192 165.517 211.157 163.128C210.088 147.745 186.783 115.538 177.338 115.538C177.338 115.538 175.104 165.177 200.802 170.706Z" fill="black"/>
<path d="M248.771 211.106C247.307 210.59 245.978 209.768 244.877 208.699C243.775 207.629 242.928 206.338 242.395 204.915C241.863 203.493 241.657 201.975 241.793 200.467C241.929 198.959 242.404 197.499 243.183 196.188L218.45 168.344L237.948 165.876L258.445 192.696C260.622 194.115 262.188 196.261 262.846 198.728C263.505 201.194 263.209 203.81 262.017 206.08C260.824 208.349 258.817 210.114 256.376 211.04C253.934 211.967 251.228 211.99 248.771 211.106H248.771Z" fill="#A0616A"/>
<path d="M179.623 75.9233C180.7 75.9449 181.773 76.0643 182.827 76.2801C184.962 76.7545 186.941 77.7366 188.589 79.1382C190.237 80.5398 191.502 82.3172 192.27 84.3111L222.846 146.427L255.67 180.405L239.258 193.275L187.376 147.972L166.648 93.1116C165.986 91.1304 165.818 89.0246 166.159 86.968C166.499 84.9114 167.338 82.963 168.605 81.2837C169.873 79.6045 171.533 78.2426 173.449 77.3106C175.365 76.3785 177.481 75.903 179.623 75.9233V75.9233Z" fill="#FF4133"/>
<path d="M160.267 67.1145C156.565 61.7272 153.644 54.2569 157.719 49.1311C161.742 44.0713 169.676 44.8168 175.836 42.5778C184.417 39.4594 189.394 29.6567 187.842 20.8777C186.29 12.0987 179.042 4.82124 170.409 1.84355C161.776 -1.13414 152.04 -0.16575 143.586 3.26328C133.178 7.48445 124.25 15.65 120.507 25.9936C116.763 36.3373 118.764 48.7568 126.531 56.7071C134.857 65.2308 147.925 67.5023 160.014 67.3645" fill="#2F2E41"/>
<path d="M119.429 37.2967C118.37 43.0533 111.876 46.3229 105.907 47.0415C99.9387 47.7601 93.7647 46.8387 87.9544 48.3481C77.7112 51.0091 70.9553 60.5885 67.2367 70.2437C63.5181 79.8989 61.869 90.3197 57.0375 99.4971C52.206 108.675 42.8381 116.765 32.2725 115.907C34.3423 120.974 37.9695 125.297 42.6592 128.286C47.3489 131.275 52.8727 132.784 58.4768 132.607C64.081 132.431 69.4926 130.577 73.9733 127.299C78.4541 124.021 81.7857 119.478 83.5135 114.291C87.3949 102.639 82.9394 88.7431 89.7272 78.4256C93.4833 72.7162 99.9692 69.3579 106.223 66.3656C112.477 63.3733 119.041 60.3019 123.234 54.8877C127.427 49.4735 128.264 40.923 123.097 36.3742" fill="#2F2E41"/>
<path d="M1.2605 416.445H340.395C340.729 416.444 341.049 416.315 341.284 416.085C341.52 415.855 341.652 415.544 341.652 415.219C341.652 414.895 341.52 414.583 341.284 414.353C341.049 414.124 340.729 413.994 340.395 413.993H1.2605C0.926764 413.994 0.607038 414.124 0.371395 414.353C0.135752 414.583 0.00341797 414.895 0.00341797 415.219C0.00341797 415.544 0.135752 415.855 0.371395 416.085C0.607038 416.315 0.926764 416.444 1.2605 416.445V416.445Z" fill="#3F3D56"/>
</svg>
